<svg xmlns="http://www.w3.org/2000/svg" width="32" height="32" fill="none" fill-rule="evenodd" xmlns:v="https://vecta.io/nano"><path d="M11.044 0h9.911c3.84 0 5.233.4 6.637 1.151a7.83 7.83 0 0 1 3.257 3.257C31.6 5.811 32 7.204 32 11.044v9.911c0 3.84-.4 5.233-1.151 6.637a7.83 7.83 0 0 1-3.257 3.257C26.189 31.6 24.796 32 20.956 32h-9.911c-3.84 0-5.233-.4-6.637-1.151a7.83 7.83 0 0 1-3.257-3.257C.4 26.189 0 24.796 0 20.956v-9.911c0-3.84.4-5.233 1.151-6.637s1.853-2.506 3.257-3.257S7.204 0 11.044 0z" fill="#000"/><path d="M16.986 8.11c.128-.513.648-.825 1.161-.697s.825.648.697 1.161L15.014 23.89c-.128.513-.648.825-1.161.697s-.825-.648-.697-1.161L16.986 8.11zm-6.053 3.781L6.824 16l4.109 4.109c.374.374.374.98 0 1.354a.96.96 0 0 1-1.354 0l-4.786-4.786c-.374-.374-.374-.98 0-1.354l4.786-4.786a.96.96 0 0 1 1.354 0c.374.374.374.98 0 1.354zm10.133 8.219L25.176 16l-4.11-4.109a.96.96 0 0 1 0-1.354.96.96 0 0 1 1.354 0l4.786 4.786c.374.374.374.98 0 1.354l-4.786 4.786a.96.96 0 0 1-1.354 0c-.374-.374-.374-.98 0-1.354z" fill="#fff"/></svg>