<svg width="16.000000" height="16.000000" viewBox="0 0 16 16" fill="none" xmlns="http://www.w3.org/2000/svg" xmlns:xlink="http://www.w3.org/1999/xlink">
	<desc>
			Created with Pixso.
	</desc>
	<defs/>
	<path id="Vector" d="M11.83 12.04L11.83 0.95C11.83 0.07 11.12 -0.63 10.25 -0.63L0.75 -0.63C-0.13 -0.63 -0.84 0.08 -0.84 0.95L-0.84 3.33C-0.84 3.76 -0.48 4.12 -0.05 4.12C0.39 4.12 0.75 3.76 0.75 3.33L0.75 0.95L10.19 0.95L10.19 12.04L0.75 12.04L0.75 9.66C0.75 9.23 0.39 8.87 -0.05 8.87C-0.48 8.87 -0.84 9.23 -0.84 9.66L-0.84 12.04C-0.84 12.91 -0.13 13.62 0.75 13.62L10.25 13.62C11.12 13.62 11.83 12.92 11.83 12.04ZM7.8 6.22L5.59 4.01C5.34 3.76 4.91 3.93 4.91 4.29L4.91 5.7L0.95 5.7C0.52 5.7 0.16 6.06 0.16 6.5C0.16 6.93 0.52 7.29 0.95 7.29L4.91 7.29L4.91 8.7C4.91 9.06 5.34 9.23 5.59 8.98L7.79 6.77C7.95 6.62 7.95 6.37 7.8 6.22Z" fill="#4529FA" fill-opacity="1.000000" fill-rule="nonzero"/>
</svg>
