<svg width="36.029663" height="33.564697" viewBox="0 0 36.0297 33.5647" fill="none" xmlns="http://www.w3.org/2000/svg" xmlns:xlink="http://www.w3.org/1999/xlink">
	<desc>
			Created with Pixso.
	</desc>
	<defs/>
	<path id="Vector" d="M0.221619 29.1045C0.0921631 29.3586 0.0172729 29.6416 0.00262451 29.9324C-0.0119629 30.2229 0.0341187 30.5134 0.137329 30.7815C0.24054 31.0498 0.398193 31.2886 0.598328 31.4802C0.798401 31.6716 1.03577 31.8105 1.29224 31.8865C4.86835 32.6243 8.39758 33.1245 12.0129 33.5571C13.231 33.7031 13.3409 31.696 12.2754 31.3257C10.8633 30.8337 9.45947 30.3647 8.05322 29.9153C9.81641 29.4846 11.5497 28.9185 13.2403 28.2212C16.9658 26.7507 20.4693 24.678 23.6346 22.0713C26.9005 19.3438 29.7118 16.0186 31.9446 12.2427C33.6228 9.40894 36.8114 4.18384 35.8539 0.654541C35.8148 0.504883 35.7412 0.369141 35.6401 0.26001C35.5391 0.150879 35.4139 0.0720215 35.2769 0.0314941C35.14 -0.00927734 34.9957 -0.0102539 34.8582 0.0280762C34.7206 0.0664062 34.5944 0.143066 34.4919 0.250488C33.2014 1.4519 32.8054 3.4873 32.1136 5.13843C31.316 7.04077 30.377 8.86792 29.3062 10.6018C27.1802 14.0601 24.5305 17.0947 21.4716 19.5754C18.7197 21.8032 15.6469 23.5112 12.3806 24.6284C10.4205 25.2234 8.41534 25.6233 6.38953 25.8228L6.73254 25.26C7.76398 23.5706 8.87592 22.1528 9.09869 20.103C9.22211 18.958 7.88794 18.3181 7.08246 18.8169C5.4696 19.8154 4.66998 21.6995 3.67535 23.3589C3.0116 24.4639 0.367554 28.8608 0.221619 29.1045Z" fill="#1C274C" fill-opacity="1.000000" fill-rule="evenodd"/>
</svg>
