<svg width="72.000000" height="72.000000" viewBox="0 0 72 72" fill="none" xmlns="http://www.w3.org/2000/svg" xmlns:xlink="http://www.w3.org/1999/xlink">
	<desc>
			Created with Pixso.
	</desc>
	<defs/>
	<path id="Vector" d="M60.36 43.48L60.36 43.48L52.22 35.26L46.85 43.48L60.36 43.48Z" fill="#000000" fill-opacity="1.000000" fill-rule="nonzero"/>
	<path id="Vector" d="M27.89 46.82L34.72 72L41.55 46.82L27.89 46.82Z" fill="#000000" fill-opacity="1.000000" fill-rule="nonzero"/>
	<path id="Vector" d="M40.43 43.48L34.59 35.56L28.94 43.48L28.94 43.48L40.43 43.48L40.43 43.48Z" fill="#000000" fill-opacity="1.000000" fill-rule="nonzero"/>
	<path id="Vector" d="M43.67 42.2L48.82 34.29L37.85 34.29L43.67 42.2Z" fill="#000000" fill-opacity="1.000000" fill-rule="nonzero"/>
	<path id="Vector" d="M31.36 34.29L20.61 34.29L25.74 42.16L31.36 34.29Z" fill="#000000" fill-opacity="1.000000" fill-rule="nonzero"/>
	<path id="Vector" d="M9.07 43.48L9.07 43.48L22.58 43.48L17.22 35.26L9.07 43.48Z" fill="#000000" fill-opacity="1.000000" fill-rule="nonzero"/>
	<path id="Vector" d="" fill="#000000" fill-opacity="1.000000" fill-rule="nonzero"/>
	<path id="Vector" d="M8.81 46.82L31.11 71.6L24.38 46.82L8.81 46.82Z" fill="#000000" fill-opacity="1.000000" fill-rule="nonzero"/>
	<path id="Vector" d="M38.33 71.6L60.63 46.82L45.05 46.82L38.33 71.6Z" fill="#000000" fill-opacity="1.000000" fill-rule="nonzero"/>
	<path id="Vector" d="M71.46 25.51C67.77 25.51 66.49 24.6 65.77 23.89C65.06 23.18 64.13 21.93 64.13 18.29C64.13 18.16 64.12 17.77 63.68 17.77C63.24 17.77 63.22 18.16 63.22 18.29C63.22 21.93 62.3 23.18 61.58 23.89C60.86 24.6 59.59 25.51 55.9 25.51C55.76 25.51 55.36 25.52 55.36 25.96C55.36 26.39 55.76 26.41 55.9 26.41C59.59 26.41 60.86 27.32 61.58 28.02C62.3 28.73 63.22 29.99 63.22 33.62C63.22 33.76 63.24 34.15 63.68 34.15C64.12 34.15 64.13 33.76 64.13 33.62C64.13 29.99 65.06 28.73 65.77 28.02C66.49 27.32 67.77 26.41 71.46 26.41C71.6 26.41 72 26.39 72 25.96C71.99 25.53 71.6 25.51 71.46 25.51Z" fill="#000000" fill-opacity="1.000000" fill-rule="nonzero"/>
	<path id="Vector" d="M16.59 11.87C21.66 11.87 23.42 13.13 24.4 14.1C25.38 15.07 26.66 16.8 26.66 21.79C26.66 21.98 26.68 22.52 27.28 22.52C27.89 22.52 27.91 21.98 27.91 21.79C27.91 16.8 29.18 15.07 30.17 14.1C31.15 13.13 32.9 11.87 37.98 11.87C38.17 11.87 38.72 11.85 38.72 11.25C38.72 10.66 38.17 10.64 37.98 10.64C32.9 10.64 31.15 9.39 30.17 8.41C29.18 7.44 27.91 5.72 27.91 0.72C27.91 0.53 27.89 0 27.28 0C26.68 0 26.66 0.53 26.66 0.72C26.66 5.72 25.38 7.44 24.4 8.41C23.42 9.39 21.66 10.64 16.59 10.64C16.4 10.64 15.85 10.66 15.85 11.26C15.85 11.85 16.4 11.87 16.59 11.87Z" fill="#000000" fill-opacity="1.000000" fill-rule="nonzero"/>
	<path id="Vector" d="M9.15 34.54C9.15 31.19 10.01 30.04 10.67 29.39C11.33 28.74 12.5 27.9 15.89 27.9C16.02 27.9 16.39 27.88 16.39 27.49C16.39 27.09 16.02 27.07 15.89 27.07C12.5 27.07 11.33 26.24 10.67 25.58C10.01 24.93 9.15 23.78 9.15 20.44C9.15 20.31 9.14 19.95 8.74 19.95C8.33 19.95 8.32 20.31 8.32 20.44C8.32 23.78 7.47 24.93 6.81 25.58C6.15 26.24 4.97 27.07 1.58 27.07C1.45 27.07 1.09 27.09 1.09 27.49C1.09 27.88 1.45 27.9 1.58 27.9C4.97 27.9 6.15 28.74 6.81 29.39C7.47 30.04 8.32 31.19 8.32 34.54C8.32 34.66 8.33 35.02 8.74 35.02C9.14 35.02 9.15 34.66 9.15 34.54Z" fill="#000000" fill-opacity="1.000000" fill-rule="nonzero"/>
</svg>
