<svg width="42.000000" height="42.000000" viewBox="0 0 42 42" fill="none" xmlns="http://www.w3.org/2000/svg" xmlns:xlink="http://www.w3.org/1999/xlink">
	<desc>
			Created with Pixso.
	</desc>
	<defs>
		<clipPath id="clip227_1837">
			<rect id="start_black_24dp 6" width="24.000000" height="24.000000" transform="translate(9.000000 9.000000)" fill="white" fill-opacity="0"/>
		</clipPath>
	</defs>
	<rect id="Rectangle 320" rx="6.000000" width="42.000000" height="42.000000" fill="#FFFFFF" fill-opacity="0"/>
	<rect id="start_black_24dp 6" width="24.000000" height="24.000000" transform="translate(9.000000 9.000000)" fill="#FFFFFF" fill-opacity="0"/>
	<g clip-path="url(#clip227_1837)">
		<path id="Vector" d="M24.29 26.29C24.68 26.67 25.31 26.67 25.7 26.29L30.29 21.7C30.68 21.3 30.68 20.67 30.29 20.29L25.7 15.7C25.31 15.3 24.68 15.3 24.29 15.7C23.91 16.08 23.89 16.73 24.29 17.12L27.16 20L16 20C15.45 20 15 20.45 15 21C15 21.54 15.45 22 16 22L27.16 22L24.29 24.87C23.89 25.26 23.89 25.9 24.29 26.29ZM12 27C12.54 27 13 26.54 13 26L13 16C13 15.45 12.54 15 12 15C11.45 15 11 15.45 11 16L11 26C11 26.54 11.45 27 12 27Z" fill="#FFFFFF" fill-opacity="0.870000" fill-rule="evenodd"/>
	</g>
</svg>