<svg width="20.000000" height="20.000000" viewBox="0 0 20 20" fill="none" xmlns="http://www.w3.org/2000/svg" xmlns:xlink="http://www.w3.org/1999/xlink">
	<desc>
			Created with Pixso.
	</desc>
	<defs>
		<clipPath id="clip209_1989">
			<rect id="add_link_24dp" width="20.000000" height="20.000000" fill="white" fill-opacity="0"/>
		</clipPath>
	</defs>
	<rect id="add_link_24dp" width="20.000000" height="20.000000" fill="#FFFFFF" fill-opacity="0"/>
	<g clip-path="url(#clip209_1989)">
		<path id="Vector" d="M7.5 9.16L12.5 9.16C12.95 9.16 13.33 9.53 13.33 9.99C13.33 10.45 12.95 10.82 12.5 10.82L7.5 10.82C7.04 10.82 6.66 10.45 6.66 9.99C6.66 9.53 7.04 9.16 7.5 9.16ZM17.44 9.99C17.95 9.99 18.33 9.5 18.21 9C17.76 7.17 16.12 5.82 14.16 5.82L11.62 5.82C11.19 5.82 10.83 6.18 10.83 6.62C10.83 7.05 11.19 7.41 11.62 7.41L14.16 7.41C15.37 7.41 16.39 8.24 16.67 9.36C16.76 9.72 17.06 9.99 17.44 9.99ZM3.3 9.47C3.53 8.25 4.68 7.41 5.93 7.41L8.37 7.41C8.8 7.41 9.16 7.05 9.16 6.62C9.16 6.18 8.8 5.82 8.37 5.82L6.01 5.82C3.84 5.82 1.9 7.41 1.69 9.58C1.45 12.06 3.4 14.16 5.83 14.16L8.37 14.16C8.8 14.16 9.16 13.8 9.16 13.37C9.16 12.93 8.8 12.57 8.37 12.57L5.83 12.57C4.24 12.57 2.98 11.12 3.3 9.47ZM15 9.99C14.54 9.99 14.16 10.37 14.16 10.82L14.16 12.49L12.5 12.49C12.04 12.49 11.66 12.87 11.66 13.32C11.66 13.78 12.04 14.16 12.5 14.16L14.16 14.16L14.16 15.82C14.16 16.28 14.54 16.66 15 16.66C15.45 16.66 15.83 16.28 15.83 15.82L15.83 14.16L17.5 14.16C17.95 14.16 18.33 13.78 18.33 13.32C18.33 12.87 17.95 12.49 17.5 12.49L15.83 12.49L15.83 10.82C15.83 10.37 15.45 9.99 15 9.99Z" fill="#3A4363" fill-opacity="1.000000" fill-rule="nonzero"/>
	</g>
</svg>
