     <svg
                        xmlns="http://www.w3.org/2000/svg"
                        width="16"
                        height="16"
                        viewBox="0 0 16 16"
                        fill="none"
                        className="mr-2"
                      >
                        <g clip-path="url(#clip0_517_93)">
                          <path
                            d="M10 13.3333H3.33333V4.66658C3.33333 4.29992 3.03333 3.99992 2.66667 3.99992C2.3 3.99992 2 4.29992 2 4.66658V13.3333C2 14.0666 2.6 14.6666 3.33333 14.6666H10C10.3667 14.6666 10.6667 14.3666 10.6667 13.9999C10.6667 13.6333 10.3667 13.3333 10 13.3333ZM13.3333 10.6666V2.66659C13.3333 1.93325 12.7333 1.33325 12 1.33325H6C5.26667 1.33325 4.66667 1.93325 4.66667 2.66659V10.6666C4.66667 11.3999 5.26667 11.9999 6 11.9999H12C12.7333 11.9999 13.3333 11.3999 13.3333 10.6666ZM12 10.6666H6V2.66659H12V10.6666Z"
                            fill="#A9ADBB"
                          />
                        </g>
                        <defs>
                          <clipPath id="clip0_517_93">
                            <rect width="16" height="16" fill="white" />
                          </clipPath>
                        </defs>
                      </svg>