<svg width="20.000000" height="20.000000" viewBox="0 0 20 20" fill="none" xmlns="http://www.w3.org/2000/svg" xmlns:xlink="http://www.w3.org/1999/xlink">
	<desc>
			Created with Pixso.
	</desc>
	<defs>
		<clipPath id="clip209_2017">
			<rect id="rocket_launch_24dp 1" width="20.000000" height="20.000000" fill="white" fill-opacity="0"/>
		</clipPath>
	</defs>
	<rect id="rocket_launch_24dp 1" width="20.000000" height="20.000000" fill="#FFFFFF" fill-opacity="0"/>
	<g clip-path="url(#clip209_2017)">
		<path id="Vector" d="M7.78 5.61C6.19 7.39 5.09 9.96 4.99 10.21L3.23 9.45C2.72 9.23 2.59 8.57 2.99 8.18L5.34 5.82C5.7 5.46 6.24 5.29 6.75 5.39L7.78 5.61ZM8.95 13.54C9.18 13.78 9.52 13.84 9.82 13.7C10.73 13.28 12.67 12.29 13.93 11.03C17.52 7.44 17.55 4.52 17.34 3.27C17.28 2.96 17.03 2.71 16.72 2.65C15.47 2.44 12.55 2.47 8.96 6.06C7.7 7.32 6.72 9.26 6.29 10.17C6.15 10.46 6.22 10.82 6.45 11.04L8.95 13.54ZM14.39 12.21C12.6 13.81 10.03 14.9 9.79 15L10.55 16.77C10.77 17.28 11.43 17.4 11.82 17.01L14.17 14.66C14.54 14.29 14.71 13.76 14.6 13.25L14.39 12.21ZM7.59 14.25C7.74 15.07 7.47 15.84 6.95 16.36C6.34 16.97 4.48 17.41 3.27 17.65C2.73 17.75 2.25 17.27 2.35 16.73C2.59 15.52 3.02 13.65 3.63 13.05C4.16 12.53 4.92 12.25 5.75 12.41C6.66 12.58 7.41 13.33 7.59 14.25ZM10.76 7.68C10.76 6.82 11.46 6.11 12.32 6.11C13.18 6.11 13.88 6.82 13.88 7.68C13.88 8.54 13.18 9.24 12.32 9.24C11.46 9.24 10.76 8.54 10.76 7.68Z" fill="#FFFFFF" fill-opacity="1.000000" fill-rule="nonzero"/>
	</g>
</svg>
