<svg width="21" height="21" viewBox="0 0 21 21" fill="none" xmlns="http://www.w3.org/2000/svg">
<path d="M10.5 0C4.70177 0 0 4.81993 0 10.7658C0 15.5225 3.00858 19.5579 7.18059 20.9815C7.70533 21.0811 7.89803 20.748 7.89803 20.4636C7.89803 20.2069 7.88823 19.3588 7.88378 18.4592C4.96258 19.1104 4.34619 17.189 4.34619 17.189C3.86856 15.9446 3.18036 15.6138 3.18036 15.6138C2.22773 14.9456 3.25217 14.9592 3.25217 14.9592C4.30658 15.0352 4.86178 16.0687 4.86178 16.0687C5.79827 17.7146 7.31812 17.2387 7.9173 16.9637C8.01151 16.2678 8.28367 15.7929 8.58392 15.5241C6.25177 15.2518 3.80004 14.3287 3.80004 10.2036C3.80004 9.02822 4.21023 8.06779 4.88196 7.31387C4.77293 7.04267 4.41355 5.94772 4.98366 4.4648C4.98366 4.4648 5.86538 4.17545 7.87192 5.56836C8.70942 5.32975 9.6077 5.21019 10.5 5.20614C11.3924 5.21019 12.2913 5.32975 13.1305 5.56836C15.1346 4.17545 16.0151 4.4648 16.0151 4.4648C16.5866 5.94772 16.2271 7.04267 16.118 7.31387C16.7913 8.06779 17.1986 9.02814 17.1986 10.2036C17.1986 14.3385 14.7423 15.249 12.4042 15.5155C12.7808 15.8496 13.1164 16.5048 13.1164 17.5091C13.1164 18.9496 13.1042 20.109 13.1042 20.4636C13.1042 20.7501 13.2932 21.0858 13.8255 20.9801C17.9952 19.5549 21 15.5209 21 10.7658C21 4.81993 16.2989 0 10.5 0Z" fill="#161614"/>
<path d="M3.93293 15.3369C3.90987 15.3903 3.82769 15.4063 3.753 15.3697C3.67682 15.3346 3.634 15.2616 3.65871 15.2079C3.68135 15.1529 3.76354 15.1375 3.83955 15.1745C3.91589 15.2095 3.95937 15.2832 3.93293 15.3369ZM4.44943 15.8094C4.39936 15.857 4.30145 15.8349 4.23499 15.7596C4.16631 15.6846 4.15347 15.5842 4.20428 15.5359C4.25591 15.4883 4.35086 15.5105 4.4197 15.5857C4.48838 15.6616 4.50172 15.7613 4.44935 15.8094M4.80378 16.4139C4.73939 16.4597 4.63414 16.4168 4.56917 16.321C4.50485 16.2254 4.50485 16.1105 4.57057 16.0645C4.63579 16.0185 4.73939 16.0599 4.80527 16.1549C4.8695 16.2522 4.8695 16.367 4.8037 16.414M5.40296 17.1141C5.3454 17.1791 5.22286 17.1617 5.1331 17.0729C5.04136 16.9861 5.01575 16.8629 5.07348 16.7978C5.1317 16.7326 5.25498 16.751 5.3454 16.839C5.43656 16.9257 5.46431 17.0498 5.40296 17.1141ZM6.17738 17.3505C6.1521 17.4348 6.03401 17.4731 5.9151 17.4373C5.79635 17.4004 5.71861 17.3016 5.74257 17.2164C5.76728 17.1316 5.88586 17.0917 6.00568 17.13C6.12427 17.1667 6.20209 17.2647 6.17738 17.3505ZM7.05886 17.4508C7.06182 17.5396 6.96094 17.6132 6.8361 17.6148C6.71052 17.6176 6.60898 17.5457 6.60766 17.4584C6.60766 17.3688 6.70623 17.2958 6.83174 17.2937C6.95658 17.2912 7.05886 17.3625 7.05886 17.4508ZM7.92469 17.4167C7.93967 17.5034 7.85288 17.5924 7.72894 17.616C7.60706 17.6388 7.49424 17.5853 7.47868 17.4995C7.46353 17.4106 7.55197 17.3217 7.6736 17.2987C7.79778 17.2766 7.90887 17.3287 7.92469 17.4167Z" fill="#161614"/>
</svg>