<svg width="21" height="21" viewBox="0 0 21 21" fill="none" xmlns="http://www.w3.org/2000/svg">
<g id="google-logo">
<path id="Path" d="M4.92188 10.4997C4.92188 9.45928 5.20854 8.48463 5.70655 7.65008V4.11011H2.16658C0.761586 5.93481 7.62939e-06 8.15864 7.62939e-06 10.4997C7.62939e-06 12.8408 0.761586 15.0646 2.16658 16.8893H5.70655V13.3494C5.20854 12.5148 4.92188 11.5402 4.92188 10.4997Z" fill="#FBBD00"/>
<path id="Path_2" d="M10.5 16.078L8.03906 18.539L10.5 20.9999C12.8411 20.9999 15.0649 20.2383 16.8896 18.8333V15.2971H13.3534C12.5116 15.7969 11.5328 16.078 10.5 16.078Z" fill="#0F9D58"/>
<path id="Path_3" d="M5.70654 13.3489L2.16656 16.8889C2.44473 17.2501 2.74763 17.5961 3.07539 17.9239C5.05858 19.907 7.69535 20.9992 10.5 20.9992V16.0774C8.46464 16.0774 6.68074 14.9814 5.70654 13.3489Z" fill="#31AA52"/>
<path id="Path_4" d="M21 10.5004C21 9.86156 20.9422 9.22156 20.8281 8.5982L20.7357 8.09375H10.5V13.0156H15.4814C14.9977 13.9779 14.2539 14.763 13.3534 15.2977L16.8896 18.8339C17.2508 18.5557 17.5968 18.2528 17.9246 17.925C19.9078 15.9418 21 13.305 21 10.5004Z" fill="#3C79E6"/>
<path id="Path_5" d="M14.4443 6.55565L14.8794 6.99066L18.3597 3.5104L17.9246 3.07539C15.9415 1.09221 13.3047 0 10.5 0L8.03906 2.46094L10.5 4.92188C11.9899 4.92188 13.3907 5.50208 14.4443 6.55565Z" fill="#CF2D48"/>
<path id="Path_6" d="M10.5 4.92188V0C7.69535 0 5.05858 1.09221 3.07535 3.07535C2.7476 3.40311 2.44469 3.74907 2.16653 4.11038L5.7065 7.65036C6.68075 6.01781 8.46464 4.92188 10.5 4.92188Z" fill="#EB4132"/>
</g>
</svg>