<svg width="36" height="36" viewBox="0 0 36 36" fill="none" xmlns="http://www.w3.org/2000/svg">
<rect width="36" height="36" rx="4" fill="#F05237"/>
<path d="M17.8628 9.15625C16.3062 9.23027 14.8378 9.90074 13.7623 11.0285C12.6869 12.1563 12.0869 13.6549 12.0869 15.2133C12.0869 16.7717 12.6869 18.2702 13.7623 19.398C14.8378 20.5258 16.3062 21.1963 17.8628 21.2703H19.8476V18.9981H17.8628C17.1123 18.9981 16.3787 18.7753 15.7548 18.3581C15.131 17.9409 14.645 17.3479 14.3585 16.6543C14.0719 15.9606 13.9976 15.1976 14.145 14.4617C14.2924 13.7258 14.6549 13.0502 15.1866 12.5205C15.7182 11.9908 16.3951 11.6308 17.1315 11.486C17.8679 11.3412 18.6307 11.4183 19.3233 11.7074C20.0159 11.9965 20.6071 12.4846 21.0221 13.1099C21.437 13.7352 21.6571 14.4696 21.6544 15.2201V20.7912C21.6696 21.5382 21.4613 22.2727 21.0563 22.9006C20.6513 23.5284 20.0679 24.021 19.3811 24.3151C18.6943 24.6092 17.9353 24.6915 17.2014 24.5515C16.4675 24.4114 15.7922 24.0553 15.262 23.5289L13.6605 25.0756C14.7733 26.1958 16.2839 26.8305 17.8628 26.8414H17.9449C19.5305 26.8199 21.0443 26.1767 22.1604 25.0503C23.2766 23.9239 23.9059 22.4043 23.913 20.8186V15.0696C23.8737 13.4899 23.2194 11.988 22.0894 10.8835C20.9594 9.77907 19.4429 9.15933 17.8628 9.15625Z" fill="white"/>
</svg>
