<svg width="15.000000" height="15.000000" viewBox="0 0 15 15" fill="none" xmlns="http://www.w3.org/2000/svg" xmlns:xlink="http://www.w3.org/1999/xlink">
	<desc>
			Created with Pixso.
	</desc>
	<defs/>
	<path id="Vector" d="M7 -0.5C2.86 -0.5 -0.5 2.86 -0.5 7C-0.5 11.14 2.86 14.5 7 14.5C11.13 14.5 14.5 11.14 14.5 7C14.5 2.86 11.13 -0.5 7 -0.5ZM7 10.75C6.58 10.75 6.25 10.41 6.25 10L6.25 7C6.25 6.58 6.58 6.25 7 6.25C7.41 6.25 7.75 6.58 7.75 7L7.75 10C7.75 10.41 7.41 10.75 7 10.75ZM7.75 4.75L6.25 4.75L6.25 3.25L7.75 3.25L7.75 4.75Z" fill="#848A9E" fill-opacity="1.000000" fill-rule="evenodd"/>
</svg>
