<svg width="100" height="100" viewBox="0 0 100 100" fill="none" xmlns="http://www.w3.org/2000/svg">
<g clip-path="url(#clip0_883_2774)">
<rect width="100" height="100" rx="4" fill="url(#paint0_linear_883_2774)"/>
<rect width="100" height="100" rx="4" fill="url(#paint1_radial_883_2774)"/>
<path fill-rule="evenodd" clip-rule="evenodd" d="M84.0429 42.7344C85.8567 37.2834 85.2229 31.3155 82.3267 26.3618C77.958 18.7654 69.1915 14.8551 60.6297 16.6981C55.8027 11.3251 48.4794 8.94577 41.4096 10.4377C34.3496 11.9297 28.6157 17.0785 26.3729 23.9435C20.7463 25.0941 15.89 28.6241 13.0426 33.6071C8.63496 41.1937 9.6296 50.7598 15.5195 57.264C13.7057 62.7151 14.3201 68.6732 17.226 73.6367C21.5946 81.233 30.3709 85.1433 38.9425 83.3003C42.7553 87.5909 48.2356 90.0386 53.9694 89.9995C62.7458 90.0093 70.5274 84.3437 73.2091 75.977C78.8357 74.8166 83.6919 71.2963 86.5393 66.3133C90.8982 58.7462 89.8938 49.2289 84.0429 42.7344ZM53.9694 84.763C50.4687 84.7728 47.0752 83.5441 44.3838 81.2915L44.8616 81.0185L60.7857 71.8229C61.5951 71.3451 62.0924 70.487 62.0924 69.5508V47.0933L68.8307 50.9841C68.8989 51.0231 68.9477 51.0816 68.9575 51.1597V69.7654C68.938 78.0541 62.2387 84.7435 53.9694 84.763ZM21.7702 71.0135C20.0149 67.9808 19.3811 64.4216 19.9857 60.9696L20.4635 61.2524L36.4071 70.448C37.2067 70.916 38.2014 70.916 39.0107 70.448L58.4844 59.2241V66.9959C58.4844 67.074 58.4356 67.152 58.3771 67.2007L42.2482 76.5036C35.0711 80.6284 25.9048 78.1711 21.7702 71.0135ZM17.5673 36.318C19.3323 33.2658 22.131 30.9352 25.4562 29.7455V48.673C25.4465 49.6092 25.9438 50.4673 26.7531 50.9256L46.139 62.1105L39.4008 66.0013C39.3228 66.0403 39.235 66.0403 39.1668 66.0013L23.0671 56.7082C15.9095 52.5639 13.4619 43.4073 17.5771 36.24V36.318H17.5673ZM72.897 49.1704L53.4526 37.8782L60.1714 33.9972C60.2494 33.9582 60.3372 33.9582 60.4054 33.9972L76.5051 43.3C81.5271 46.1962 84.433 51.7447 83.9454 57.5273C83.4579 63.3099 79.684 68.2929 74.2525 70.3212V51.3937C74.2232 50.4673 73.7064 49.6189 72.897 49.1704ZM79.5963 39.0971L79.1185 38.8144L63.2041 29.5408C62.3947 29.063 61.3903 29.063 60.5907 29.5408L41.1268 40.7646V32.9928C41.1171 32.9148 41.1561 32.8367 41.2243 32.788L57.324 23.4949C62.3655 20.589 68.6259 20.862 73.3944 24.1872C78.1628 27.5125 80.5812 33.2951 79.5963 39.0289V39.0971ZM37.4602 52.8759L30.722 48.9948C30.6537 48.9558 30.605 48.8876 30.5952 48.8096V30.2429C30.605 24.431 33.9692 19.1458 39.235 16.6787C44.5008 14.2115 50.7125 15.0112 55.1884 18.7264L54.7106 18.9995L38.7865 28.1951C37.9771 28.6729 37.4797 29.531 37.4797 30.4672L37.4602 52.8759ZM41.117 44.987L49.7958 39.9845L58.4844 44.987V54.9822L49.8251 59.9847L41.1365 54.9822L41.117 44.987Z" fill="white"/>
</g>
<defs>
<linearGradient id="paint0_linear_883_2774" x1="99.706" y1="2.28272e-06" x2="0.981977" y2="101.339" gradientUnits="userSpaceOnUse">
<stop stop-color="#F7D615"/>
<stop offset="1" stop-color="#F7D615" stop-opacity="0.3"/>
</linearGradient>
<radialGradient id="paint1_radial_883_2774" cx="0" cy="0" r="1" gradientUnits="userSpaceOnUse" gradientTransform="translate(50 -21.5) rotate(80.7497) scale(155.522 155.522)">
<stop stop-color="#54A2C6"/>
<stop offset="1" stop-color="#F6D611"/>
</radialGradient>
<clipPath id="clip0_883_2774">
<rect width="100" height="100" fill="white"/>
</clipPath>
</defs>
</svg>
