<svg width="20.000000" height="20.000000" viewBox="0 0 20 20" fill="none" xmlns="http://www.w3.org/2000/svg" xmlns:xlink="http://www.w3.org/1999/xlink">
	<desc>
			Created with Pixso.
	</desc>
	<defs>
		<clipPath id="clip209_3142">
			<rect id="open_in_browser_black_24dp 2" width="20.000000" height="20.000000" fill="white" fill-opacity="0"/>
		</clipPath>
	</defs>
	<rect id="open_in_browser_black_24dp 2" width="20.000000" height="20.000000" fill="#FFFFFF" fill-opacity="0"/>
	<g clip-path="url(#clip209_3142)">
		<path id="Vector" d="M16.66 15.83L16.66 4.16C16.66 3.24 15.91 2.5 14.99 2.5L4.99 2.5C4.08 2.5 3.33 3.25 3.33 4.16L3.33 6.66C3.33 7.12 3.7 7.5 4.16 7.5C4.62 7.5 4.99 7.12 4.99 6.66L4.99 4.16L14.93 4.16L14.93 15.83L4.99 15.83L4.99 13.33C4.99 12.87 4.62 12.5 4.16 12.5C3.7 12.5 3.33 12.87 3.33 13.33L3.33 15.83C3.33 16.75 4.08 17.5 4.99 17.5L14.99 17.5C15.91 17.5 16.66 16.75 16.66 15.83ZM12.42 9.7L10.1 7.38C9.83 7.11 9.38 7.29 9.38 7.67L9.38 9.16L5.21 9.16C4.75 9.16 4.38 9.54 4.38 10C4.38 10.45 4.75 10.83 5.21 10.83L9.38 10.83L9.38 12.32C9.38 12.7 9.83 12.88 10.09 12.61L12.41 10.29C12.58 10.13 12.58 9.86 12.42 9.7Z" fill="#A9ADBB" fill-opacity="1.000000" fill-rule="evenodd"/>
	</g>
</svg>
