<svg width="14.000000" height="14.000000" viewBox="0 0 14 14" fill="none" xmlns="http://www.w3.org/2000/svg" xmlns:xlink="http://www.w3.org/1999/xlink">
	<desc>
			Created with Pixso.
	</desc>
	<defs/>
	<path id="Vector" d="M11.78 3.66L12.34 2.42L13.58 1.86C13.85 1.73 13.85 1.34 13.58 1.21L12.34 0.66L11.78 -0.59C11.65 -0.87 11.26 -0.87 11.13 -0.59L10.58 0.65L9.33 1.21C9.05 1.33 9.05 1.73 9.33 1.85L10.57 2.41L11.13 3.66C11.26 3.94 11.65 3.94 11.78 3.66ZM6.14 4.72L5.01 2.24C4.77 1.69 3.97 1.69 3.73 2.24L2.6 4.72L0.12 5.85C-0.43 6.1 -0.43 6.89 0.12 7.14L2.6 8.26L3.73 10.74C3.98 11.3 4.77 11.3 5.01 10.74L6.14 8.26L8.62 7.14C9.17 6.88 9.17 6.1 8.62 5.85L6.14 4.72ZM11.13 9.33L10.57 10.57L9.33 11.12C9.05 11.25 9.05 11.64 9.33 11.77L10.57 12.33L11.13 13.58C11.26 13.85 11.64 13.85 11.77 13.58L12.33 12.33L13.58 11.78C13.85 11.65 13.85 11.26 13.58 11.13L12.34 10.57L11.78 9.33C11.65 9.05 11.26 9.05 11.13 9.33Z" fill="#4529FA" fill-opacity="1.000000" fill-rule="evenodd"/>
</svg>
